<?xml version="1.0" encoding="utf-8"?>
<!-- Generator: Adobe Illustrator 17.0.0, SVG Export Plug-In . SVG Version: 6.00 Build 0)  -->
<!DOCTYPE svg PUBLIC "-//W3C//DTD SVG 1.1//EN" "http://www.w3.org/Graphics/SVG/1.1/DTD/svg11.dtd">
<svg version="1.1" id="图层_1" xmlns="http://www.w3.org/2000/svg" xmlns:xlink="http://www.w3.org/1999/xlink" x="0px" y="0px"
	 width="560px" height="960px" viewBox="0 0 560 960" enable-background="new 0 0 560 960" xml:space="preserve">
<g>
	<g>
		<path d="M180.609,475.826c2.435-0.629,4.123,0.128,5.714,2.209c7.335,9.594,21.526,9.613,28.851,0.037
			c1.406-1.839,2.848-2.493,5.081-2.488c26.063,0.056,52.126,0.065,78.189-0.019c2.88-0.009,4.408,0.551,3.946,3.846
			c-0.417,2.967,1.254,6.993-0.696,8.699c-1.69,1.479-5.592,0.488-8.516,0.489c-37.523,0.014-75.045,0.009-112.568,0.01
			C180.609,484.348,180.609,480.087,180.609,475.826z M226.107,482.811c0.235,1.346-0.94,3.768,2.337,3.422
			c1.524-0.161,3.269,0.054,3.346-2.124c0.145-4.091-0.423-4.635-3.338-4.841C225.523,479.061,226.138,480.978,226.107,482.811z
			 M282.999,486.306c0.886-0.045,2.091-0.293,2.37-1.787c0.295-1.579-0.86-2.065-2.062-2.493c-0.595-0.212-1.798-0.105-1.481-1.032
			c0.396-1.16,1.263-0.412,1.918,0.033c0.447,0.303,0.997,0.499,1.298-0.061c0.27-0.504-0.16-0.969-0.567-1.246
			c-0.976-0.664-2.043-0.818-3.159-0.344c-0.803,0.342-1.374,0.909-1.354,1.817c0.027,1.234,0.964,1.613,1.954,1.993
			c0.72,0.276,2.252,0.194,1.645,1.447c-0.438,0.905-1.58,0.411-2.313-0.298c-0.362-0.35-0.842-0.697-1.25-0.103
			c-0.351,0.512,0.022,0.938,0.383,1.302C280.996,486.153,281.777,486.297,282.999,486.306z M254.717,482.517
			c0.815,1.209,1.373,2.156,2.051,3.006c0.566,0.71,1.638,1.141,1.745-0.076c0.172-1.97,0.66-4.087-0.465-6.188
			c-1.384,0.96-0.31,2.45-1.161,3.375c-1.125-0.52-1.295-1.756-2.005-2.554c-0.605-0.68-1.614-1.188-1.816-0.09
			c-0.368,2.003-0.549,4.149,0.306,6.602C254.704,485.155,253.969,483.907,254.717,482.517z M285.845,485.876
			c2.24-1.882,4.152-1.293,6.205,0.209c-0.51-2.132-1.098-4.014-1.875-5.816c-0.553-1.283-1.613-1.346-2.198-0.111
			C287.109,481.99,286.54,483.963,285.845,485.876z M263.115,486.303c0.962-0.002,1.79-0.303,2.365-1.11
			c0.288-0.404,0.651-0.891,0.203-1.332c-0.464-0.457-0.9-0.11-1.24,0.299c-0.78,0.936-1.699,1.193-2.558,0.226
			c-0.82-0.924-0.819-2.097-0.16-3.096c0.708-1.073,1.676-0.906,2.603-0.181c0.389,0.304,0.847,0.771,1.286,0.243
			c0.529-0.635-0.039-1.145-0.49-1.498c-1.255-0.982-2.632-1.024-3.932-0.14c-1.564,1.064-1.737,2.678-1.272,4.326
			C260.352,485.568,261.514,486.305,263.115,486.303z M238.319,479.558c-2.005-0.585-1.789,1.971-3.122,1.628
			c-0.943-0.243-0.925-2.46-2.709-1.496c0.61,1.924,2.432,3.327,2.195,5.554c-0.041,0.384,0.149,0.79,0.651,0.845
			c0.521,0.057,0.801-0.317,0.758-0.71C235.844,483.105,237.798,481.647,238.319,479.558z"/>
		<path d="M200.588,449.373c9.465-0.013,16.719,7.116,16.676,16.39c-0.041,8.907-7.607,16.351-16.628,16.36
			c-8.655,0.008-16.292-7.602-16.386-16.329C184.152,456.752,191.482,449.385,200.588,449.373z M214.04,465.764
			c0.07-7.367-5.8-13.383-13.154-13.483c-7.151-0.097-13.414,6.084-13.449,13.271c-0.034,7.065,5.974,13.174,13.083,13.303
			C207.84,478.987,213.971,473.05,214.04,465.764z"/>
		<path d="M259.918,473.034c-6.8-0.02-12.396-5.672-12.306-12.43c0.088-6.603,5.763-12.051,12.468-11.97
			c6.741,0.081,12.114,5.558,12.069,12.303C272.103,467.689,266.679,473.054,259.918,473.034z M259.928,468.493
			c-0.262-2.025-1.689-2.266-2.944-2.77c-0.55-0.221-1.203-0.565-0.784-1.323c0.283-0.512,0.75-0.991,1.449-0.894
			c0.287,0.04,0.547,0.253,0.828,0.366c1.082,0.437,2.445,0.825,2.819-0.567c0.333-1.238-1.237-1.357-2.08-1.76
			c-2.095-1.002-4.305-1.78-6.342-2.883c-2.332-1.262-2.762-0.201-2.816,1.865c-0.103,3.959,2.284,7.71,6.056,9.35
			c3.683,1.602,8.036,0.727,10.853-2.277c0.518-0.552,1.903-1.248,0.827-2.091c-0.999-0.783-2.631-2.172-3.684-1.16
			C262.794,465.612,260.662,466.047,259.928,468.493z M260.098,453.542c0.855,0.6,0.761,2.139,2.208,2.206
			c0.535,0.025,1.306,0.382,0.953,1.176c-0.277,0.622-0.764,1.2-1.669,0.928c-0.92-0.276-1.921-0.822-2.818,0.748
			c3.188,1.425,6.287,2.83,9.402,4.196c1.497,0.656,1.412-0.509,1.502-1.399c0.426-4.196-2.465-8.396-6.604-9.881
			c-3.939-1.413-9.597,0.353-10.987,3.942C255.726,458.116,256.859,457.31,260.098,453.542z"/>
		<path d="M286.84,473.034c-6.644-0.049-12.155-5.641-12.111-12.289c0.043-6.562,5.715-12.166,12.313-12.165
			c6.663,0.001,12.17,5.488,12.257,12.211C299.385,467.563,293.767,473.084,286.84,473.034z M287.006,470.676
			c5.405,0.012,9.879-4.487,9.835-9.889c-0.044-5.304-4.361-9.69-9.642-9.793c-5.35-0.105-9.948,4.374-10.009,9.751
			C277.129,466.104,281.637,470.664,287.006,470.676z"/>
		<path d="M232.979,448.7c6.728,0.014,12.189,5.519,12.136,12.234c-0.053,6.683-5.549,12.094-12.291,12.101
			c-6.682,0.007-12.277-5.514-12.264-12.1C220.575,454.026,225.996,448.685,232.979,448.7z M223.001,460.701
			c-0.076,5.391,4.379,9.949,9.756,9.98c5.278,0.031,9.745-4.27,9.903-9.534c0.161-5.372-4.222-9.998-9.614-10.146
			C227.704,450.856,223.077,455.323,223.001,460.701z"/>
		<path d="M191.523,465.5c0.06-3.917,3.888-6.228,7.25-4.358c0.68,0.378,1.699,0.82,1.346,1.711
			c-0.359,0.909-1.293,1.21-2.262,0.488c-1.059-0.789-2.185-0.802-2.877,0.361c-0.761,1.278-0.79,2.744,0.162,3.989
			c0.73,0.954,1.791,1.028,2.668,0.247c0.879-0.783,1.78-0.839,2.28,0.079c0.57,1.046-0.57,1.571-1.272,1.986
			c-1.591,0.94-3.318,0.928-4.931,0.077C192.089,469.131,191.451,467.473,191.523,465.5z"/>
		<path d="M205.994,460.526c0.419,0.106,1.233,0.207,1.953,0.523c0.791,0.347,1.94,0.891,1.554,1.834
			c-0.416,1.016-1.456,1.142-2.507,0.321c-0.905-0.707-1.97-0.598-2.635,0.419c-0.843,1.29-0.866,2.716,0.042,3.974
			c0.782,1.084,1.892,1.157,2.884,0.269c0.921-0.824,1.815-0.625,2.263,0.243c0.457,0.886-0.555,1.412-1.187,1.79
			c-1.904,1.139-3.909,1.151-5.662-0.22c-2.002-1.566-2.191-3.767-1.46-6.04C201.905,461.567,203.484,460.639,205.994,460.526z"/>
		<path d="M286.966,467.444c-1.835,0.033-3.403-0.567-4.431-2.129c-0.456-0.693-1.427-1.605-0.507-2.359
			c0.735-0.602,1.95-0.645,2.663,0.398c1.33,1.943,2.878,2.182,4.466,0.458c1.39-1.508,1.132-4.981-0.288-6.154
			c-1.447-1.195-3.447-0.609-3.898,1.29c-0.314,1.322-0.943,2.469-2.239,2.091c-1.417-0.413-1.649-1.618-0.861-3.122
			c1.478-2.822,4.029-4.093,7.008-3.177c2.921,0.898,4.655,3.842,4.234,7.192C292.698,465.228,290.237,467.436,286.966,467.444z"/>
		<path d="M229.411,460.175c0.205-1.398-0.292-2.774,1.069-2.989c1.748-0.276,3.927-0.898,5.192,0.441
			c1.022,1.082,0.945,3.474,0.11,4.576c-1.141,1.506-1.041,2.933-1.012,4.465c0.027,1.409-0.435,1.976-1.902,1.971
			c-1.38-0.005-2.301-0.42-1.924-1.858C231.638,464.136,229.048,462.251,229.411,460.175z"/>
		<path d="M234.473,454.771c-0.183,1.021-0.72,1.717-1.824,1.624c-0.913-0.077-1.517-0.692-1.494-1.613
			c0.027-1.069,0.696-1.664,1.788-1.609C233.914,453.223,234.325,453.891,234.473,454.771z"/>
	</g>
</g>
</svg>
